<?xml version="1.0" standalone="no"?>
<!DOCTYPE svg PUBLIC "-//W3C//DTD SVG 20010904//EN"
 "http://www.w3.org/TR/2001/REC-SVG-20010904/DTD/svg10.dtd">
<svg version="1.0" xmlns="http://www.w3.org/2000/svg"
 width="1024.000000pt" height="1024.000000pt" viewBox="0 0 1024.000000 1024.000000"
 preserveAspectRatio="xMidYMid meet">

<g transform="translate(0.000000,1024.000000) scale(0.100000,-0.100000)"
fill="#000000" stroke="none">
<path d="M0 5120 l0 -5120 5120 0 5120 0 0 5120 0 5120 -5120 0 -5120 0 0
-5120z m2612 3715 c36 -194 111 -366 205 -472 105 -121 335 -287 481 -348 235
-98 605 -142 965 -116 229 17 473 55 842 132 254 53 571 105 729 120 153 14
384 7 509 -15 186 -34 417 -127 566 -228 331 -225 593 -596 707 -1002 84 -296
128 -709 122 -1141 l-3 -230 -285 -7 c-263 -6 -501 -21 -571 -35 -26 -5 -30
-1 -51 41 -12 25 -27 46 -34 46 -6 0 -53 -11 -105 -25 -52 -13 -240 -62 -419
-108 -179 -46 -442 -114 -585 -152 -143 -37 -276 -71 -295 -75 -57 -13 -446
-115 -890 -232 -228 -61 -442 -117 -475 -125 -33 -8 -89 -25 -125 -38 -84 -31
-195 -65 -213 -65 -24 0 -168 774 -219 1175 -5 37 68 30 283 -24 108 -28 243
-55 299 -61 386 -39 754 26 1240 220 107 43 433 202 550 270 118 68 204 112
294 151 50 22 99 48 110 58 33 30 144 87 221 112 50 17 93 24 150 24 98 0 153
-24 229 -99 110 -111 171 -240 246 -516 23 -85 43 -157 45 -158 8 -8 -7 159
-22 248 -49 295 -169 493 -351 577 -76 36 -150 40 -253 14 -108 -27 -205 -76
-402 -201 -371 -237 -609 -355 -942 -468 -219 -75 -334 -101 -625 -142 -134
-19 -410 -24 -542 -10 -301 31 -541 121 -798 298 -52 36 -102 65 -110 65 -8 0
-21 6 -28 14 -9 9 -10 13 -2 13 6 0 -17 24 -52 54 -60 52 -149 146 -233 246
-54 63 -171 243 -210 320 -80 160 -142 364 -177 585 -29 183 -32 542 -5 735
22 155 51 295 78 380 20 61 98 282 115 325 l8 20 4 -20 c1 -11 12 -69 24 -130z
m5098 -3662 c23 -9 21 -11 -30 -28 -95 -32 -234 -118 -287 -178 -16 -19 -50
-65 -74 -102 l-44 -69 -6 60 c-4 32 -8 93 -9 134 -2 72 -3 73 -11 30 -4 -25
-6 -74 -4 -110 l4 -65 -13 58 c-18 77 -26 82 -26 17 0 -62 19 -278 27 -300 3
-8 15 14 26 50 20 61 87 160 108 160 5 0 9 4 9 10 0 30 78 126 138 170 139
102 271 127 387 71 100 -48 149 -110 180 -228 46 -176 -11 -373 -138 -477 -91
-74 -227 -121 -334 -114 -52 3 -68 9 -93 33 -16 16 -30 37 -30 47 0 10 -4 18
-10 18 -6 0 -10 -50 -10 -129 0 -211 -35 -351 -145 -576 -115 -238 -298 -480
-555 -733 -280 -277 -562 -477 -875 -620 -365 -166 -785 -230 -1101 -167 -108
21 -235 85 -299 149 -57 57 -122 160 -165 263 -28 66 -142 426 -180 568 -34
127 -110 399 -135 481 -30 99 -30 104 -6 77 11 -12 46 -34 78 -50 52 -25 68
-28 158 -28 91 0 105 3 155 29 140 73 224 170 290 334 44 110 80 304 80 433 0
41 5 70 13 77 6 5 106 33 220 62 l209 52 31 -38 c77 -94 222 -245 258 -269 22
-14 57 -41 77 -60 47 -42 226 -137 323 -171 102 -36 262 -44 357 -19 72 19
201 80 268 126 48 33 161 178 200 258 75 154 121 365 132 604 l7 152 40 7 c22
4 109 7 193 7 l152 1 2 -57 2 -58 3 50 c6 83 -11 77 221 73 114 -2 218 -9 232
-15z"/>
<path d="M2786 8360 c9 -33 85 -167 147 -260 238 -355 568 -621 957 -769 47
-18 107 -42 133 -53 27 -11 51 -18 53 -15 4 4 -53 33 -256 129 -271 129 -461
253 -610 399 -143 140 -274 313 -378 499 -29 52 -50 84 -46 70z"/>
<path d="M6430 6221 c-286 -97 -518 -197 -1197 -521 l-133 -63 0 -47 c0 -43
16 -149 23 -157 5 -4 246 94 261 106 13 11 414 193 541 246 234 97 311 126
460 173 88 28 185 56 215 63 30 7 59 16 63 20 8 6 -55 172 -75 197 -16 19 -66
14 -158 -17z"/>
<path d="M7161 5926 c-1 -34 2 -47 9 -40 7 7 7 24 1 50 l-9 39 -1 -49z"/>
<path d="M7202 5000 c0 -14 2 -19 5 -12 2 6 2 18 0 25 -3 6 -5 1 -5 -13z"/>
<path d="M7626 4749 c-27 -22 -34 -53 -14 -65 18 -11 76 -6 132 12 29 10 64
14 90 11 l41 -6 -25 20 c-14 10 -32 18 -40 16 -8 -1 -23 6 -32 15 -26 26 -117
25 -152 -3z"/>
<path d="M4799 4056 c-15 -32 9 -74 121 -216 156 -196 159 -200 184 -200 27 0
86 19 86 28 0 33 -338 412 -368 412 -7 0 -17 -11 -23 -24z"/>
<path d="M5220 3255 c-116 -24 -305 -105 -266 -113 10 -2 37 3 60 11 100 38
226 67 310 73 111 8 275 -16 355 -52 32 -14 49 -18 42 -10 -7 8 -42 26 -79 41
-37 15 -83 34 -102 43 -48 21 -235 26 -320 7z"/>
</g>
</svg>
